<?xml version="1.0" encoding="UTF-8" standalone="no"?>
<!-- Created with Inkscape (http://www.inkscape.org/) -->

<svg
   width="16.933329mm"
   height="16.933334mm"
   viewBox="0 0 16.933329 16.933334"
   version="1.1"
   id="svg1"
   xml:space="preserve"
   xmlns="http://www.w3.org/2000/svg"
   xmlns:svg="http://www.w3.org/2000/svg"><defs
     id="defs1" /><g
     id="layer1"
     transform="translate(-145.00003,-94.130012)"><g
       id="g112"><rect
         style="fill:#000000;stroke:none;stroke-width:0.196311;stroke-linejoin:bevel;stroke-dasharray:0.523494, 0.261749, 0.130874, 0.261749"
         id="rect38"
         width="16.933332"
         height="16.933332"
         x="141.53334"
         y="96.533333"
         transform="translate(3.4666742,-2.4033325)" /><circle
         style="fill:#ffffff;stroke:none;stroke-width:0.279073;stroke-linejoin:miter;stroke-dasharray:none;stroke-dashoffset:0"
         id="path111"
         cx="177.00002"
         cy="115.3395"
         r="8.1978941"
         transform="matrix(0.80484083,0,0,0.80484083,11.009839,9.7667265)" /><g
         id="g111"
         transform="translate(-12.721718,-59.317934)"><g
           id="g101"
           transform="translate(16.853799,-3.9512395)"><path
             id="path109"
             style="fill:#ffffff;stroke:#000000;stroke-width:0.3;stroke-linejoin:bevel;stroke-dasharray:none;stroke-dashoffset:0"
             d="m 149.56193,172.38948 a 6.4934244,6.4934244 0 0 0 6.37067,-6.49211 6.4934244,6.4934244 0 0 0 -0.23306,-1.72496 l -5.75262,-0.96273 z" /><path
             id="path108"
             style="fill:#f2f2f2;stroke:#000000;stroke-width:0.3;stroke-linejoin:bevel;stroke-dasharray:none;stroke-dashoffset:0"
             d="m 155.9326,165.86584 a 6.4934244,6.4934244 0 0 0 -0.38499,-2.16627 l -5.42137,-1.44849 -3.59099,5.95622 z" /><path
             id="path110"
             style="fill:#ffffff;stroke:#000000;stroke-width:0.3;stroke-linejoin:bevel;stroke-dasharray:none;stroke-dashoffset:0"
             d="m 155.9326,165.89737 c -0.0131,-0.5255 -0.09,-1.04746 -0.22892,-1.55443 l -5.11494,-0.78341 -4.18165,4.70565 z" /><path
             id="path107"
             style="fill:#f2f2f2;stroke:#000000;stroke-width:0.3;stroke-linejoin:bevel;stroke-dasharray:none;stroke-dashoffset:0"
             d="m 150.62905,172.28096 a 6.4934244,6.4934244 0 0 0 5.30355,-6.38359 6.4934244,6.4934244 0 0 0 -0.20102,-1.603 l -5.14284,-0.73484 z" /></g></g></g></g></svg>
