<?xml version="1.0" encoding="UTF-8" standalone="no"?>
<!-- Created with Inkscape (http://www.inkscape.org/) -->

<svg
   width="16.933325mm"
   height="16.933334mm"
   viewBox="0 0 16.933325 16.933334"
   version="1.1"
   id="svg1"
   xml:space="preserve"
   xmlns="http://www.w3.org/2000/svg"
   xmlns:svg="http://www.w3.org/2000/svg"><defs
     id="defs1" /><g
     id="layer1"
     transform="translate(-112.50001,-74.320013)"><g
       id="g71"
       transform="translate(2.5000038,-0.17999954)"><rect
         style="fill:#000000;stroke:none;stroke-width:0.196311;stroke-linejoin:bevel;stroke-dasharray:0.523494, 0.261749, 0.130874, 0.261749"
         id="rect25"
         width="16.933332"
         height="16.933332"
         x="110.00001"
         y="74.5" /><path
         id="path22"
         style="fill:#000000;stroke:#ffffff;stroke-width:0.6;stroke-linejoin:round;stroke-dasharray:none;stroke-dashoffset:0"
         d="m 118.88574,84.345704 c 0.17469,0.215531 0.15882,0.680002 0.15943,0.936803 -0.001,0.530366 -0.39349,1.010296 -1.00077,1.22397 -0.0909,0.680199 -0.80839,1.196717 -1.6642,1.197316 -0.85118,-4.48e-4 -1.56652,-0.511331 -1.66334,-1.187277 -0.61324,-0.211821 -1.01057,-0.694495 -1.01118,-1.228469 0.001,-0.26405 0.10037,-0.521883 0.28453,-0.741098 -0.69465,-0.176467 -1.16656,-0.691557 -1.16836,-1.274166 2.6e-4,-0.480382 0.32229,-0.923886 0.84399,-1.162353 -0.24543,-0.238755 -0.38047,-0.537996 -0.38107,-0.847017 6e-5,-0.739814 0.75034,-1.339542 1.67589,-1.339581 0.0207,4.48e-4 0.0413,0.0018 0.0619,0.0032 -0.0407,-0.116415 -0.0616,-0.23669 -0.0619,-0.357563 -1.9e-4,-0.740081 0.75044,-1.340082 1.67632,-1.33993 0.92572,4.9e-5 1.67608,0.599987 1.67591,1.33993 0.92555,4.1e-5 1.67583,0.59976 1.67589,1.339582 -0.001,0.338586 -0.16302,0.664225 -0.45254,0.911402 0.005,0.0375 0.009,0.07511 0.009,0.112839 -4.6e-4,0.127316 -0.0243,0.2539 -0.0698,0.375909 h 2.04994 v -1.151277 l 2.58614,2.19943 -2.58614,2.115327 v -1.126784 z" /></g></g></svg>
