<?xml version="1.0" encoding="UTF-8" standalone="no"?>
<!-- Created with Inkscape (http://www.inkscape.org/) -->

<svg
   width="16.933332mm"
   height="16.933334mm"
   viewBox="0 0 16.933332 16.933334"
   version="1.1"
   id="svg1"
   xml:space="preserve"
   xmlns="http://www.w3.org/2000/svg"
   xmlns:svg="http://www.w3.org/2000/svg"><defs
     id="defs1" /><g
     id="layer1"
     transform="translate(-112.50001,-113.94001)"><rect
       style="fill:#000000;stroke:none;stroke-width:0.196311;stroke-linejoin:bevel;stroke-dasharray:0.523494, 0.261749, 0.130874, 0.261749"
       id="rect27"
       width="16.933332"
       height="16.933332"
       x="112.50001"
       y="113.94" /><g
       id="g116"
       transform="translate(0.38876326,-0.84227085)"><circle
         style="fill:#ffffff;stroke:#ffffff;stroke-width:0.209151;stroke-linejoin:miter;stroke-dasharray:none;stroke-dashoffset:0"
         id="circle103"
         cx="120.96667"
         cy="123.24894"
         r="6.4934244" /><g
         id="g115"
         transform="translate(-35.68934,-67.092708)"><g
           id="g102"
           transform="translate(-4.7974959,-9.0509406)"><path
             id="path73"
             style="fill:#ffffff;stroke:#000000;stroke-width:0.3;stroke-linejoin:bevel;stroke-dasharray:none;stroke-dashoffset:0"
             d="m 158.16419,193.4899 a 6.3595181,6.3595181 0 0 0 -3.9362,5.87974 6.3595181,6.3595181 0 0 0 2.64015,5.15834 h 2.60449 l 3.92793,-5.61774 z" /><path
             style="fill:#cccccc;stroke:#000000;stroke-width:0.3;stroke-linejoin:bevel;stroke-dasharray:none;stroke-dashoffset:0"
             d="m 162.19653,193.23512 -4.72398,10.29281 6.45734,-4.61753 z"
             id="path80" /><path
             id="path100"
             style="fill:#f2f2f2;stroke:#000000;stroke-width:0.3;stroke-linejoin:bevel;stroke-dasharray:none;stroke-dashoffset:0"
             d="m 158.34919,193.36071 a 6.4934244,6.4934244 0 0 0 -4.08864,6.03167 6.4934244,6.4934244 0 0 0 4.30103,6.11229 l 0.41703,-0.001 4.95111,-6.59339 z" /><path
             id="path101"
             style="fill:#ffffff;stroke:#000000;stroke-width:0.3;stroke-linejoin:bevel;stroke-dasharray:none;stroke-dashoffset:0"
             d="m 163.92987,198.91038 -4.9511,6.59342 3.21777,-12.26868 z" /></g></g></g></g></svg>
