<?xml version="1.0" encoding="UTF-8" standalone="no"?>
<!-- Created with Inkscape (http://www.inkscape.org/) -->

<svg
   width="16.933329mm"
   height="16.933334mm"
   viewBox="0 0 16.933329 16.933334"
   version="1.1"
   id="svg1"
   xml:space="preserve"
   inkscape:version="1.4.3 (0d15f75042, 2025-12-25)"
   sodipodi:docname="diagram.svg"
   xmlns:inkscape="http://www.inkscape.org/namespaces/inkscape"
   xmlns:sodipodi="http://sodipodi.sourceforge.net/DTD/sodipodi-0.dtd"
   xmlns="http://www.w3.org/2000/svg"
   xmlns:svg="http://www.w3.org/2000/svg"><sodipodi:namedview
     id="namedview1"
     pagecolor="#ffffff"
     bordercolor="#000000"
     borderopacity="0.25"
     inkscape:showpageshadow="2"
     inkscape:pageopacity="0.0"
     inkscape:pagecheckerboard="0"
     inkscape:deskcolor="#d1d1d1"
     inkscape:document-units="mm"
     showgrid="false"
     showguides="true"
     inkscape:zoom="0.70710678"
     inkscape:cx="1217.6379"
     inkscape:cy="521.1377"
     inkscape:window-width="1920"
     inkscape:window-height="1014"
     inkscape:window-x="0"
     inkscape:window-y="0"
     inkscape:window-maximized="1"
     inkscape:current-layer="layer1"><inkscape:grid
       id="grid1"
       units="mm"
       originx="-145"
       originy="-135.65408"
       spacingx="0.99999998"
       spacingy="1"
       empcolor="#0099e5"
       empopacity="0.30196078"
       color="#0099e5"
       opacity="0.14901961"
       empspacing="5"
       enabled="true"
       visible="false" /><sodipodi:guide
       position="96.022373,90.523773"
       orientation="1,0"
       id="guide60"
       inkscape:locked="false" /><sodipodi:guide
       position="209.99999,82.587434"
       orientation="1,0"
       id="guide82"
       inkscape:locked="false" /><sodipodi:guide
       position="315.99998,122.58745"
       orientation="1,0"
       id="guide110"
       inkscape:locked="false" /><sodipodi:guide
       position="429.99999,117.58745"
       orientation="1,0"
       id="guide112"
       inkscape:locked="false" /><inkscape:page
       x="0"
       y="-2.0455888e-19"
       width="16.933329"
       height="16.933334"
       id="page1"
       margin="0"
       bleed="0" /></sodipodi:namedview><defs
     id="defs1"><mask
       maskUnits="userSpaceOnUse"
       id="mask301"><circle
         style="fill:#ffffff;stroke:#000000;stroke-width:0.3;stroke-linecap:square;stroke-linejoin:round;stroke-dasharray:none;stroke-dashoffset:0;paint-order:markers fill stroke"
         id="circle302"
         cx="105"
         cy="240"
         r="17.442503" /></mask><mask
       maskUnits="userSpaceOnUse"
       id="mask300"><circle
         style="fill:#ffffff;stroke:#000000;stroke-width:0.3;stroke-linecap:square;stroke-linejoin:round;stroke-dasharray:none;stroke-dashoffset:0;paint-order:markers fill stroke"
         id="circle301"
         cx="105"
         cy="240"
         r="17.442503" /></mask></defs><g
     inkscape:label="Camada 1"
     inkscape:groupmode="layer"
     id="layer1"
     transform="translate(-145.00003,-135.65409)"><g
       id="g243"
       inkscape:export-filename="g78.svg"
       inkscape:export-xdpi="96"
       inkscape:export-ydpi="96"
       transform="translate(65,1.9040862)"><rect
         style="fill:#000000;stroke:none;stroke-width:0.196311;stroke-linejoin:bevel;stroke-dasharray:0.523494, 0.261749, 0.130874, 0.261749"
         id="rect242"
         width="16.933332"
         height="16.933332"
         x="80.000008"
         y="133.75" /></g><g
       id="g308"
       transform="matrix(1.3512271,0,0,1.3512271,1439.7068,-485.5576)"
       style="stroke-width:0.370034;stroke-dasharray:none"
       inkscape:export-filename="2.png"
       inkscape:export-xdpi="96"
       inkscape:export-ydpi="96"><g
         id="g307"
         mask="url(#mask301)"
         transform="matrix(1.4013189,0,0,1.4013189,6.030216,-128.57619)"
         style="stroke-width:0.264061;stroke-dasharray:none"><path
           id="path302"
           style="fill:#e6e6e6;stroke:#000000;stroke-width:0.264061;stroke-linejoin:bevel;stroke-dasharray:none;paint-order:markers fill stroke"
           d="m 96.461813,231.5192 16.566427,16.51889 -0.0475,-33.0755 -0.0584,0.0481 z" /><path
           id="path308"
           style="fill:#ececec;stroke:#000000;stroke-width:0.264061;stroke-linejoin:bevel;stroke-dasharray:none;paint-order:markers fill stroke"
           d="m 113.00529,248.11496 -16.566424,16.51889 0.0475,-33.0755 0.0584,0.0481 z" /><path
           id="path303"
           style="fill:#ffffff;stroke:#000000;stroke-width:0.264061;stroke-linejoin:bevel;stroke-dasharray:none;paint-order:markers fill stroke"
           d="m 79.947933,231.60645 16.542793,16.54279 h 33.085584 l -16.54279,-16.54279 z" /><path
           id="path305"
           style="fill:#ffffff;stroke:#000000;stroke-width:0.264061;stroke-linejoin:bevel;stroke-dasharray:none;paint-order:markers fill stroke"
           d="m 79.91887,231.57739 h 33.08559 l -33.08559,33.08558 z" /><path
           id="path309"
           style="fill:#ffffff;stroke:#000000;stroke-width:0.264061;stroke-linejoin:bevel;stroke-dasharray:none;paint-order:markers fill stroke"
           d="M 129.49623,248.12727 H 96.410637 l 33.085593,-33.08558 z" /><path
           style="fill:#f2f2f2;stroke:#000000;stroke-width:0.264061;stroke-linecap:square;stroke-linejoin:round;stroke-dasharray:none;stroke-dashoffset:0;paint-order:markers fill stroke"
           d="m 112.98074,214.96259 -16.431428,16.64386 c 1.483508,2.92839 3.124906,6.74771 8.526558,7.85559 l 4.78274,-4.7388 c -4.79223,-5.87071 1.63806,-12.75585 3.06373,-19.71255 z"
           id="path310"
           sodipodi:nodetypes="cccccc" /><path
           style="fill:#f2f2f2;stroke:#000000;stroke-width:0.264061;stroke-linecap:square;stroke-linejoin:round;stroke-dasharray:none;stroke-dashoffset:0;paint-order:markers fill stroke"
           d="m 96.596809,264.68195 16.431431,-16.64386 c -1.48351,-2.92839 -3.24156,-6.77732 -8.64321,-7.8852 l -4.666091,4.76841 c 3.078481,2.7375 -1.63806,12.7558 -3.06373,19.71255 z"
           id="path311"
           sodipodi:nodetypes="cccccc" /></g><circle
         style="fill:none;stroke:#000000;stroke-width:0.264061;stroke-linecap:square;stroke-linejoin:round;stroke-dasharray:none;stroke-dashoffset:0;paint-order:markers fill stroke"
         id="circle307"
         mask="url(#mask300)"
         r="17.442503"
         cy="240"
         cx="105"
         transform="matrix(1.4013189,0,0,1.4013189,6.5951949,-131.03826)" /><g
         id="g242"
         transform="matrix(0.19976909,0,0,0.19976909,-1004.5469,426.657)"
         style="stroke-width:0.926154;stroke-dasharray:none"><circle
           style="opacity:1;fill:#ffffff;stroke:#ffffff;stroke-width:0.370462;stroke-linejoin:round;stroke-dasharray:none;stroke-dashoffset:0"
           id="path242"
           cx="263.39371"
           cy="197.68408"
           r="24.247725" /><g
           id="g241"
           transform="translate(158.98446,-41.655332)"
           style="stroke-width:0.370462;stroke-dasharray:none"><path
             style="opacity:1;fill:#000000;stroke:#ffffff;stroke-width:0.370462;stroke-linejoin:round;stroke-dasharray:none;stroke-dashoffset:0"
             d="m 121.2966,221.74009 c 8.07066,8.29006 9.63809,18.03157 4.70228,29.22454 l -10.23102,-0.30502 c -2.75681,-6.43479 -6.7771,-10.11451 -12.06088,-11.03914 z"
             id="path234"
             sodipodi:nodetypes="ccccc" /><path
             style="opacity:1;fill:#000000;stroke:#ffffff;stroke-width:0.370462;stroke-linejoin:round;stroke-dasharray:none;stroke-dashoffset:0"
             d="m 103.70698,239.62047 -16.616269,16.61628 c -7.959572,-8.85501 -9.20919,-18.40296 -3.748854,-28.64383 l 9.340356,0.0537 c 4.964073,9.76888 9.157507,10.55619 11.845917,10.97526 z"
             id="path235"
             sodipodi:nodetypes="cccccc" /><path
             style="opacity:1;fill:#4d4d4d;stroke:#ffffff;stroke-width:0.370462;stroke-linejoin:round;stroke-dasharray:none;stroke-dashoffset:0"
             d="m 92.682193,227.64662 12.360177,-12.63926 c 2.13211,0.0339 4.21307,0.42005 6.27871,0.91172 -3.23283,6.52931 -3.24976,11.86701 -0.0508,16.01312 l -6.74208,6.6897 c -4.21693,-1.39332 -7.570346,-1.89583 -11.846007,-10.97528 z"
             id="path236"
             sodipodi:nodetypes="cccccc" /><path
             style="opacity:1;fill:#4d4d4d;stroke:#ffffff;stroke-width:0.370462;stroke-linejoin:round;stroke-dasharray:none;stroke-dashoffset:0"
             d="m 109.13116,227.59292 c 1.85753,-0.19239 4.03814,-0.19239 6.54181,0 l 0.0476,-9.83529 c -0.5846,-0.31169 -0.88379,-0.52593 -4.39953,-1.83855 -1.99236,4.05664 -2.72232,7.94792 -2.18988,11.67384 z"
             id="path237"
             sodipodi:nodetypes="ccccc" /><path
             style="opacity:1;fill:#000000;stroke:#ffffff;stroke-width:0.370462;stroke-linejoin:round;stroke-dasharray:none;stroke-dashoffset:0"
             d="m 109.19841,227.63364 6.47456,-0.0407 -4.46945,4.25569 c -1.03515,-1.26841 -1.70352,-2.6734 -2.00511,-4.21499 z"
             id="path238"
             sodipodi:nodetypes="cccc" /><path
             style="opacity:1;fill:#4d4d4d;stroke:#ffffff;stroke-width:0.370462;stroke-linejoin:round;stroke-dasharray:none;stroke-dashoffset:0"
             d="m 103.70698,239.62047 c 5.53709,1.11082 9.55985,4.84245 12.06828,11.1949 l -12.85318,12.8561 c -2.18387,-0.0109 -4.50392,-0.71283 -6.809749,-1.48376 1.362791,-6.03114 4.208389,-12.82984 0.99191,-15.9645 z"
             id="path239"
             sodipodi:nodetypes="cccccc" /><path
             style="opacity:1;fill:#000000;stroke:#ffffff;stroke-width:0.370462;stroke-linejoin:round;stroke-dasharray:none;stroke-dashoffset:0"
             d="m 92.554192,250.7117 4.550049,-4.48849 c 1.101309,1.14562 1.582622,2.67634 1.44394,4.59216 z"
             id="path240"
             sodipodi:nodetypes="cccc" /><path
             style="opacity:1;fill:#4d4d4d;stroke:#ffffff;stroke-width:0.370462;stroke-linejoin:round;stroke-dasharray:none;stroke-dashoffset:0"
             d="m 92.554095,250.77593 5.99391,0.0394 c -0.149828,3.9227 -1.390939,7.62795 -2.435677,11.37233 -1.16234,-0.52706 -2.260602,-0.94427 -3.572136,-1.72709 z"
             id="path241"
             sodipodi:nodetypes="ccccc" /></g></g></g></g></svg>
